<?xml version="1.0" encoding="iso-8859-1"?>
<!-- Generator: Adobe Illustrator 19.0.0, SVG Export Plug-In . SVG Version: 6.00 Build 0)  -->
<svg version="1.1" id="Capa_1" xmlns="http://www.w3.org/2000/svg" xmlns:xlink="http://www.w3.org/1999/xlink" x="0px" y="0px"
	 viewBox="0 0 512 512" style="enable-background:new 0 0 512 512;" xml:space="preserve">
<g>
	<g>
		<path style="fill:#336A93;" d="M59.733,8.533h392.533c28.277,0,51.2,22.923,51.2,51.2v392.533c0,28.277-22.923,51.2-51.2,51.2
			H59.733c-28.277,0-51.2-22.923-51.2-51.2V59.733C8.533,31.456,31.456,8.533,59.733,8.533z"/>
		<g>
			<circle style="fill:#5496CE;" cx="72.533" cy="72.533" r="21.333"/>
			<circle style="fill:#5496CE;" cx="439.467" cy="72.533" r="21.333"/>
			<circle style="fill:#5496CE;" cx="72.533" cy="439.467" r="21.333"/>
			<circle style="fill:#5496CE;" cx="439.467" cy="439.467" r="21.333"/>
		</g>
	</g>
	<polygon style="fill:#5496CE;" points="256,110.933 302.814,207.326 409.6,221.756 331.75,295.757 350.933,401.067 256,350.413 
		161.067,401.067 180.25,295.757 102.4,221.756 209.186,207.326 	"/>
	<g>
		<path style="fill:#7F34A5;" d="M59.733,8.533h392.533c28.277,0,51.2,22.923,51.2,51.2v392.533c0,28.277-22.923,51.2-51.2,51.2
			H59.733c-28.277,0-51.2-22.923-51.2-51.2V59.733C8.533,31.456,31.456,8.533,59.733,8.533z"/>
		<path style="fill:#AA44B9;" d="M57.933,8.533h362.001c27.283,0,49.399,22.117,49.399,49.399v396.134
			c0,27.283-22.117,49.4-49.399,49.4H57.933c-27.283,0-49.399-22.117-49.399-49.4V57.933C8.533,30.65,30.65,8.533,57.933,8.533z"/>
		<g>
			<circle style="fill:#FFE749;" cx="72.533" cy="72.533" r="21.333"/>
			<circle style="fill:#FFE749;" cx="439.467" cy="72.533" r="21.333"/>
			<circle style="fill:#FFE749;" cx="72.533" cy="439.467" r="21.333"/>
			<circle style="fill:#FFE749;" cx="439.467" cy="439.467" r="21.333"/>
		</g>
	</g>
	<polygon style="fill:#F9D842;" points="256,110.933 302.814,207.326 409.6,221.756 331.75,295.757 350.933,401.067 256,350.413 
		161.067,401.067 180.25,295.757 102.4,221.756 209.186,207.326 	"/>
	<polygon style="fill:#FFE749;" points="256,321.4 195.746,353.545 207.915,286.737 158.729,239.974 226.21,230.861 256,169.532 
		285.79,230.861 353.271,239.974 304.085,286.737 316.254,353.545 	"/>
	<g>
		<path d="M452.267,0H59.733C26.759,0.037,0.037,26.759,0,59.733v392.533C0.037,485.241,26.759,511.963,59.733,512h392.533
			c32.974-0.037,59.696-26.759,59.733-59.733V59.733C511.963,26.759,485.241,0.037,452.267,0z M494.933,452.267
			c-0.028,23.553-19.114,42.639-42.667,42.667H59.733c-23.553-0.028-42.639-19.114-42.667-42.667V59.733
			c0.028-23.553,19.114-42.639,42.667-42.667h392.533c23.553,0.028,42.639,19.114,42.667,42.667V452.267z"/>
		<path d="M72.533,102.4c16.495,0,29.867-13.372,29.867-29.867S89.028,42.667,72.533,42.667S42.667,56.038,42.667,72.533
			C42.687,89.02,56.047,102.38,72.533,102.4L72.533,102.4z M72.533,59.733c7.069,0,12.8,5.731,12.8,12.8
			c0,7.069-5.731,12.8-12.8,12.8c-7.069,0-12.8-5.731-12.8-12.8C59.741,65.467,65.467,59.741,72.533,59.733z"/>
		<path d="M439.467,42.667c-16.495,0-29.867,13.372-29.867,29.867s13.372,29.867,29.867,29.867
			c16.495,0,29.867-13.372,29.867-29.867C469.313,56.047,455.953,42.687,439.467,42.667L439.467,42.667z M439.467,85.333
			c-7.069,0-12.8-5.731-12.8-12.8c0-7.069,5.731-12.8,12.8-12.8c7.069,0,12.8,5.731,12.8,12.8
			C452.259,79.599,446.533,85.326,439.467,85.333L439.467,85.333z"/>
		<path d="M72.533,409.6c-16.495,0-29.867,13.372-29.867,29.867c0,16.495,13.372,29.867,29.867,29.867s29.867-13.372,29.867-29.867
			C102.38,422.98,89.02,409.62,72.533,409.6L72.533,409.6z M72.533,452.267c-7.069,0-12.8-5.731-12.8-12.8
			c0-7.069,5.731-12.8,12.8-12.8c7.069,0,12.8,5.731,12.8,12.8C85.326,446.533,79.599,452.259,72.533,452.267z"/>
		<path d="M439.467,409.6c-16.495,0-29.867,13.372-29.867,29.867c0,16.495,13.372,29.867,29.867,29.867
			c16.495,0,29.867-13.372,29.867-29.867C469.313,422.98,455.953,409.62,439.467,409.6L439.467,409.6z M439.467,452.267
			c-7.069,0-12.8-5.731-12.8-12.8c0-7.069,5.731-12.8,12.8-12.8c7.069,0,12.8,5.731,12.8,12.8
			C452.259,446.533,446.533,452.259,439.467,452.267L439.467,452.267z"/>
		<path d="M340.971,298.767l74.509-70.829c2.38-2.262,3.251-5.688,2.241-8.812c-1.011-3.124-3.724-5.391-6.978-5.829l-102.25-13.817
			l-44.817-92.275c-1.593-2.729-4.515-4.406-7.675-4.406c-3.16,0-6.082,1.678-7.675,4.406l-44.817,92.275l-102.25,13.817
			c-3.254,0.439-5.967,2.706-6.978,5.829c-1.011,3.124-0.14,6.55,2.241,8.812l74.508,70.829l-18.354,100.771
			c-0.585,3.22,0.723,6.491,3.366,8.421s6.158,2.177,9.046,0.638L256,360.083l90.913,48.512c2.888,1.539,6.402,1.292,9.046-0.638
			c2.644-1.929,3.951-5.2,3.367-8.42L340.971,298.767z M260.017,342.883c-2.51-1.339-5.523-1.339-8.033,0l-79.354,42.342
			l16.017-87.937c0.517-2.831-0.429-5.731-2.517-7.712l-64.954-61.746l89.15-12.046c2.833-0.382,5.286-2.158,6.533-4.729
			L256,130.467l39.142,80.588c1.248,2.572,3.701,4.347,6.533,4.729l89.15,12.046l-64.954,61.746
			c-2.087,1.981-3.034,4.882-2.517,7.712l16.016,87.937L260.017,342.883z"/>
	</g>
</g>
<g>
</g>
<g>
</g>
<g>
</g>
<g>
</g>
<g>
</g>
<g>
</g>
<g>
</g>
<g>
</g>
<g>
</g>
<g>
</g>
<g>
</g>
<g>
</g>
<g>
</g>
<g>
</g>
<g>
</g>
</svg>
